<svg version="1.1" id="Layer_1" xmlns="http://www.w3.org/2000/svg" xmlns:xlink="http://www.w3.org/1999/xlink" x="0px" y="0px"
	 width="100%" viewBox="0 0 100 100" enable-background="new 0 0 100 100" xml:space="preserve">
<path fill="#000000" opacity="1.000000" stroke="none" 
	d="
M101.000000,28.000000 
	C101.000000,52.302532 101.000000,76.605064 101.000000,100.953796 
	C67.739716,100.953796 34.479347,100.953796 1.109489,100.953796 
	C1.109489,67.782173 1.109489,34.563862 1.109489,1.000000 
	C25.019791,1.000000 49.041237,1.000000 73.531342,1.411042 
	C73.804649,7.928694 73.697464,7.944550 68.374741,4.967205 
	C67.441704,4.445300 65.793625,4.199341 64.956963,4.674037 
	C60.346176,7.290053 59.838398,10.141335 62.791252,14.534351 
	C63.113033,15.013071 62.951103,15.816926 63.020042,16.538027 
	C61.011330,17.175327 59.069523,17.791401 57.270782,18.362083 
	C57.270782,21.689571 57.270782,24.788002 57.270782,27.861538 
	C59.317745,27.987658 61.089680,28.096832 63.630894,28.253405 
	C62.287498,30.959778 61.185661,33.179512 60.271572,35.021019 
	C63.209297,41.606873 67.992439,42.108425 74.062103,38.307404 
	C74.062103,41.139015 74.062103,42.902431 74.062103,44.828423 
	C77.509438,44.828423 80.617821,44.828423 83.502892,44.828423 
	C84.165863,42.714050 84.765114,40.802895 85.605713,38.122013 
	C89.264984,40.858398 91.905914,43.384281 96.105576,38.841019 
	C100.301743,34.301537 94.744865,32.576126 95.155693,28.569277 
	C96.988243,28.390774 98.994125,28.195389 101.000000,28.000000 
M68.345345,83.000000 
	C66.588081,83.000000 64.830818,83.000000 62.897552,83.000000 
	C63.033836,80.588066 63.131844,78.853531 63.236580,76.999939 
	C73.324020,76.999939 82.974571,76.949120 92.623955,77.032738 
	C95.311913,77.056023 97.087547,76.700401 97.046791,73.326981 
	C96.918663,62.721668 96.999619,52.113831 96.999619,40.757450 
	C89.503220,46.633648 95.106270,54.645607 92.445847,60.718056 
	C64.683792,60.718056 36.955498,60.718056 9.277670,60.718056 
	C9.277670,45.367699 9.277670,30.300936 9.277670,14.999969 
	C23.522089,14.999969 37.490971,15.077974 51.456512,14.897448 
	C53.129860,14.875817 54.785053,13.449593 56.448662,12.674403 
	C56.240231,12.116271 56.031803,11.558139 55.823372,11.000007 
	C40.526108,11.000007 25.226856,11.135011 9.932893,10.910195 
	C5.833391,10.849934 4.886085,12.269614 4.922131,16.116293 
	C5.095380,34.604683 5.149240,53.097649 4.894143,71.584145 
	C4.831067,76.155205 6.383091,77.216148 10.634853,77.088287 
	C20.060009,76.804840 29.499559,77.000000 39.090683,77.000000 
	C38.967373,79.379318 38.876572,81.131355 38.786831,82.862923 
	C24.436491,82.637672 26.916452,84.933029 27.322374,92.670593 
	C43.189484,92.670593 59.059269,92.670593 74.918129,92.670593 
	C75.127991,83.606712 74.986649,83.374229 68.345345,83.000000 
z"/>
<path fill="#FFFFFF" opacity="1.000000" stroke="none" 
	d="
M101.000000,27.545891 
	C98.994125,28.195389 96.988243,28.390774 95.155693,28.569277 
	C94.744865,32.576126 100.301743,34.301537 96.105576,38.841019 
	C91.905914,43.384281 89.264984,40.858398 85.605713,38.122013 
	C84.765114,40.802895 84.165863,42.714050 83.502892,44.828423 
	C80.617821,44.828423 77.509438,44.828423 74.062103,44.828423 
	C74.062103,42.902431 74.062103,41.139015 74.062103,38.307404 
	C67.992439,42.108425 63.209297,41.606873 60.271572,35.021019 
	C61.185661,33.179512 62.287498,30.959778 63.630894,28.253405 
	C61.089680,28.096832 59.317745,27.987658 57.270782,27.861538 
	C57.270782,24.788002 57.270782,21.689571 57.270782,18.362083 
	C59.069523,17.791401 61.011330,17.175327 63.020042,16.538027 
	C62.951103,15.816926 63.113033,15.013071 62.791252,14.534351 
	C59.838398,10.141335 60.346176,7.290053 64.956963,4.674037 
	C65.793625,4.199341 67.441704,4.445300 68.374741,4.967205 
	C73.697464,7.944550 73.804649,7.928694 74.000000,1.411042 
	C77.030594,1.000000 80.061188,1.000000 83.545891,1.406464 
	C84.712006,7.730962 85.119972,7.877064 89.635048,5.034105 
	C90.587051,4.434660 92.558769,4.754763 93.714447,5.337598 
	C95.596062,6.286531 97.192413,7.801090 98.590744,8.840315 
	C94.077400,17.288046 94.242851,17.722988 101.000000,18.000000 
	C101.000000,21.030594 101.000000,24.061186 101.000000,27.545891 
M66.276649,24.038954 
	C68.566391,27.389486 70.160995,30.815264 67.407364,33.999454 
	C69.948845,33.999454 72.793587,33.266773 74.882927,34.209068 
	C76.902794,35.120029 78.144508,37.756355 79.847496,39.776520 
	C79.940498,38.221989 80.027885,36.761360 80.158798,34.573063 
	C83.315010,34.048443 86.438202,33.529312 89.515541,33.017803 
	C88.224281,27.350456 89.496880,25.268248 96.996849,22.156878 
	C94.825661,22.053701 93.047813,21.969215 90.657394,21.855621 
	C90.010757,18.677788 89.374664,15.551798 88.824356,12.847379 
	C86.965851,12.519693 84.208733,12.722304 82.396820,11.511016 
	C80.744873,10.406670 80.117905,7.769105 79.467880,6.586978 
	C78.568001,7.822353 77.548340,10.382877 75.671967,11.485546 
	C73.620644,12.691026 70.776993,12.548231 69.029289,12.859427 
	C68.324547,15.784701 67.591225,18.828613 66.864609,21.844677 
	C64.822159,21.978832 63.157288,22.088188 61.492413,22.197542 
	C61.475044,22.421612 61.457672,22.645679 61.440304,22.869749 
	C62.781101,23.247393 64.121902,23.625036 66.276649,24.038954 
z"/>
<path fill="#000000" opacity="1.000000" stroke="none" 
	d="
M101.000000,17.529547 
	C94.242851,17.722988 94.077400,17.288046 98.590744,8.840315 
	C97.192413,7.801090 95.596062,6.286531 93.714447,5.337598 
	C92.558769,4.754763 90.587051,4.434660 89.635048,5.034105 
	C85.119972,7.877064 84.712006,7.730962 84.000000,1.406464 
	C89.592087,1.000000 95.184174,1.000000 101.000000,1.000000 
	C101.000000,6.350975 101.000000,11.705034 101.000000,17.529547 
z"/>
<path fill="#FFFFFF" opacity="1.000000" stroke="none" 
	d="
M68.796051,83.000000 
	C74.986649,83.374229 75.127991,83.606712 74.918129,92.670593 
	C59.059269,92.670593 43.189484,92.670593 27.322374,92.670593 
	C26.916452,84.933029 24.436491,82.637672 38.786831,82.862923 
	C38.876572,81.131355 38.967373,79.379318 39.090683,77.000000 
	C29.499559,77.000000 20.060009,76.804840 10.634853,77.088287 
	C6.383091,77.216148 4.831067,76.155205 4.894143,71.584145 
	C5.149240,53.097649 5.095380,34.604683 4.922131,16.116293 
	C4.886085,12.269614 5.833391,10.849934 9.932893,10.910195 
	C25.226856,11.135011 40.526108,11.000007 55.823372,11.000007 
	C56.031803,11.558139 56.240231,12.116271 56.448662,12.674403 
	C54.785053,13.449593 53.129860,14.875817 51.456512,14.897448 
	C37.490971,15.077974 23.522089,14.999969 9.277670,14.999969 
	C9.277670,30.300936 9.277670,45.367699 9.277670,60.718056 
	C36.955498,60.718056 64.683792,60.718056 92.445847,60.718056 
	C95.106270,54.645607 89.503220,46.633648 96.999619,40.757450 
	C96.999619,52.113831 96.918663,62.721668 97.046791,73.326981 
	C97.087547,76.700401 95.311913,77.056023 92.623955,77.032738 
	C82.974571,76.949120 73.324020,76.999939 63.236580,76.999939 
	C63.131844,78.853531 63.033836,80.588066 62.897552,83.000000 
	C64.830818,83.000000 66.588081,83.000000 68.796051,83.000000 
M68.500000,73.000000 
	C76.606262,73.000000 84.712517,73.000000 92.713898,73.000000 
	C92.713898,70.024887 92.713898,67.617683 92.713898,65.279999 
	C64.681671,65.279999 36.936436,65.279999 9.286097,65.279999 
	C9.286097,67.975090 9.286097,70.382294 9.286097,73.000000 
	C28.880857,73.000000 48.190430,73.000000 68.500000,73.000000 
M58.995350,81.412109 
	C58.922001,80.003761 58.848652,78.595421 58.777779,77.234558 
	C53.356533,77.234558 48.310925,77.234558 43.209175,77.234558 
	C43.209175,79.197792 43.209175,80.924118 43.209175,83.266335 
	C48.600777,82.955421 53.767429,82.657478 58.995350,81.412109 
M32.685184,87.904915 
	C32.598789,88.184929 32.502972,88.463112 32.447083,88.749077 
	C32.443340,88.768234 32.741810,88.890816 32.899761,88.890900 
	C45.157711,88.897789 57.415665,88.897217 70.008705,88.897217 
	C69.367813,88.147713 68.956627,87.244202 68.540756,87.242043 
	C56.779335,87.180992 45.017437,87.210808 32.685184,87.904915 
z"/>
<path fill="#000000" opacity="1.000000" stroke="none" 
	d="
M65.869675,24.020817 
	C64.121902,23.625036 62.781101,23.247393 61.440304,22.869749 
	C61.457672,22.645679 61.475044,22.421612 61.492413,22.197542 
	C63.157288,22.088188 64.822159,21.978832 66.864609,21.844677 
	C67.591225,18.828613 68.324547,15.784701 69.029289,12.859427 
	C70.776993,12.548231 73.620644,12.691026 75.671967,11.485546 
	C77.548340,10.382877 78.568001,7.822353 79.467880,6.586978 
	C80.117905,7.769105 80.744873,10.406670 82.396820,11.511016 
	C84.208733,12.722304 86.965851,12.519693 88.824356,12.847379 
	C89.374664,15.551798 90.010757,18.677788 90.657394,21.855621 
	C93.047813,21.969215 94.825661,22.053701 96.996849,22.156878 
	C89.496880,25.268248 88.224281,27.350456 89.515541,33.017803 
	C86.438202,33.529312 83.315010,34.048443 80.158798,34.573063 
	C80.027885,36.761360 79.940498,38.221989 79.847496,39.776520 
	C78.144508,37.756355 76.902794,35.120029 74.882927,34.209068 
	C72.793587,33.266773 69.948845,33.999454 67.407364,33.999454 
	C70.160995,30.815264 68.566391,27.389486 65.869675,24.020817 
M77.780563,14.031314 
	C77.497002,14.199047 77.231400,14.415770 76.927216,14.527219 
	C71.808617,16.402637 69.848915,20.055445 71.009361,25.584948 
	C71.746750,29.098591 76.630318,31.687325 81.219193,30.997086 
	C85.398666,30.368423 87.343521,27.115480 87.008987,21.481806 
	C86.692467,16.151585 83.116783,14.565405 77.780563,14.031314 
z"/>
<path fill="#000000" opacity="1.000000" stroke="none" 
	d="
M68.000000,73.000000 
	C48.190430,73.000000 28.880857,73.000000 9.286097,73.000000 
	C9.286097,70.382294 9.286097,67.975090 9.286097,65.279999 
	C36.936436,65.279999 64.681671,65.279999 92.713898,65.279999 
	C92.713898,67.617683 92.713898,70.024887 92.713898,73.000000 
	C84.712517,73.000000 76.606262,73.000000 68.000000,73.000000 
z"/>
<path fill="#000000" opacity="1.000000" stroke="none" 
	d="
M58.964714,81.885818 
	C53.767429,82.657478 48.600777,82.955421 43.209175,83.266335 
	C43.209175,80.924118 43.209175,79.197792 43.209175,77.234558 
	C48.310925,77.234558 53.356533,77.234558 58.777779,77.234558 
	C58.848652,78.595421 58.922001,80.003761 58.964714,81.885818 
z"/>
<path fill="#000000" opacity="1.000000" stroke="none" 
	d="
M32.970402,87.565353 
	C45.017437,87.210808 56.779335,87.180992 68.540756,87.242043 
	C68.956627,87.244202 69.367813,88.147713 70.008705,88.897217 
	C57.415665,88.897217 45.157711,88.897789 32.899761,88.890900 
	C32.741810,88.890816 32.443340,88.768234 32.447083,88.749077 
	C32.502972,88.463112 32.598789,88.184929 32.970402,87.565353 
z"/>
<path fill="#FFFFFF" opacity="1.000000" stroke="none" 
	d="
M78.189117,14.016813 
	C83.116783,14.565405 86.692467,16.151585 87.008987,21.481806 
	C87.343521,27.115480 85.398666,30.368423 81.219193,30.997086 
	C76.630318,31.687325 71.746750,29.098591 71.009361,25.584948 
	C69.848915,20.055445 71.808617,16.402637 76.927216,14.527219 
	C77.231400,14.415770 77.497002,14.199047 78.189117,14.016813 
M77.753387,20.035913 
	C77.337044,21.690620 76.760574,23.336882 76.672386,25.008894 
	C76.658745,25.267601 79.047104,26.141243 80.023170,25.818569 
	C80.897263,25.529604 82.117775,23.562283 81.848053,23.073599 
	C81.161507,21.829710 79.726791,20.998762 77.753387,20.035913 
z"/>
<path fill="#000000" opacity="1.000000" stroke="none" 
	d="
M78.172447,20.019226 
	C79.726791,20.998762 81.161507,21.829710 81.848053,23.073599 
	C82.117775,23.562283 80.897263,25.529604 80.023170,25.818569 
	C79.047104,26.141243 76.658745,25.267601 76.672386,25.008894 
	C76.760574,23.336882 77.337044,21.690620 78.172447,20.019226 
z"/>
</svg>