<svg version="1.1" id="Layer_1" xmlns="http://www.w3.org/2000/svg" xmlns:xlink="http://www.w3.org/1999/xlink" x="0px" y="0px"
	 width="100%" viewBox="0 0 427 134" enable-background="new 0 0 427 134" xml:space="preserve">
<path fill="#000000" opacity="1.000000" stroke="none" 
	d="
M303.000000,135.000000 
	C202.000015,135.000000 101.500023,135.000000 1.000027,135.000000 
	C1.000018,90.333351 1.000018,45.666702 1.000009,1.000039 
	C143.333298,1.000026 285.666595,1.000026 427.999939,1.000013 
	C427.999939,45.666626 427.999939,90.333252 427.999969,134.999939 
	C386.500000,135.000000 345.000000,135.000000 303.000000,135.000000 
M47.102623,116.280067 
	C47.187908,116.328003 47.273193,116.375946 47.358479,116.423882 
	C47.242001,116.280228 47.125523,116.136581 46.982006,115.523598 
	C46.863125,115.256851 46.744244,114.990097 46.625362,114.723351 
	C46.505314,114.808830 46.276615,114.963341 46.280788,114.969910 
	C46.505821,115.324112 46.750446,115.665871 47.102623,116.280067 
M40.014050,45.007271 
	C40.014050,45.007271 39.942497,45.063663 39.289047,45.107372 
	C38.874790,45.787914 38.460537,46.468456 38.014473,47.719048 
	C37.994274,48.099133 37.974075,48.479218 37.322601,48.947037 
	C36.917496,49.364220 36.512390,49.781399 36.033352,50.870926 
	C35.410534,52.265747 34.787716,53.660564 33.638168,54.999424 
	C33.386532,55.213352 33.134899,55.427277 32.883263,55.641209 
	C33.251949,55.794262 33.620636,55.947315 33.993702,56.742172 
	C33.991707,57.170044 33.989712,57.597912 33.409267,58.086353 
	C33.273270,58.745255 33.137272,59.404160 33.000523,60.904663 
	C33.001873,62.588619 33.003227,64.272575 32.390202,66.066071 
	C32.146908,66.539581 31.903610,67.013100 31.660315,67.486610 
	C32.434727,67.649055 33.209141,67.811493 33.993122,68.799934 
	C33.995773,70.176491 33.998428,71.553047 33.555809,73.483467 
	C32.412895,73.905869 31.269985,74.328262 28.675905,75.286987 
	C32.458736,79.381332 35.601101,82.782471 38.903873,86.734901 
	C39.381477,86.955521 39.859077,87.176140 40.336681,87.396751 
	C39.954155,86.858269 39.571632,86.319794 39.164497,85.192123 
	C39.438988,84.461449 39.713474,83.730774 40.493622,82.999886 
	C40.662170,82.999825 40.830723,82.999763 41.222954,83.432472 
	C41.423130,83.702278 41.682198,83.891457 42.436527,84.016182 
	C42.436527,84.016182 42.872593,84.039337 43.159275,84.508820 
	C43.492992,84.629028 43.826714,84.749245 44.688538,85.285484 
	C45.798828,87.149063 46.909119,89.012650 47.695595,91.395233 
	C46.560287,91.990372 45.424980,92.585518 44.459713,93.091522 
	C46.078320,94.518166 47.550243,95.815521 49.094513,97.792229 
	C49.396523,99.112793 49.698536,100.433350 49.329056,101.940407 
	C48.605968,102.275253 47.882881,102.610107 46.409122,102.997559 
	C45.682781,103.622314 44.956444,104.247070 44.230103,104.871819 
	C45.486221,105.581009 46.742344,106.290199 48.929695,106.999725 
	C54.983692,106.655266 61.037685,106.310814 67.868767,105.986076 
	C67.917686,104.584152 67.966606,103.182220 67.921997,101.237930 
	C67.276497,101.424370 66.630989,101.610802 65.071091,101.945343 
	C61.047253,101.880058 57.023418,101.814774 53.008343,100.939850 
	C53.194592,96.272278 56.820721,98.070694 58.995731,98.106163 
	C63.941029,98.186813 68.401215,98.441429 68.490814,91.449768 
	C68.513168,89.705284 70.069618,87.795998 71.314339,86.286934 
	C74.763931,82.104759 78.420921,78.093651 82.584564,73.939583 
	C82.721413,73.235001 82.858261,72.530418 83.001122,71.254311 
	C83.009079,70.873367 83.017029,70.492424 83.489090,69.839828 
	C83.656410,69.530113 83.823723,69.220406 84.016747,68.128334 
	C83.993523,65.132477 83.970306,62.136623 84.052902,58.543137 
	C85.019081,57.710861 85.985252,56.878586 86.959541,56.690186 
	C87.296234,57.309547 87.632935,57.928909 87.969643,58.548275 
	C88.185219,58.372879 88.600029,58.059860 88.587639,58.041924 
	C88.097824,57.332813 87.569199,56.650505 87.012741,55.165199 
	C86.728401,48.348785 82.029205,44.392509 77.585381,40.255566 
	C76.269760,40.891251 75.126244,41.443775 73.619736,41.998192 
	C73.619736,41.998192 73.256737,41.999474 72.901642,41.520004 
	C72.543541,41.370880 72.185448,41.221760 71.221786,41.031490 
	C70.817284,41.022152 70.412773,41.012810 69.963638,40.403957 
	C69.637932,39.934353 69.312218,39.464752 68.493835,38.997963 
	C68.493835,38.997963 68.001160,39.000000 67.646011,38.514023 
	C67.082680,38.341000 66.519341,38.167976 65.489197,37.998299 
	C65.489197,37.998299 65.022377,38.000874 64.787369,37.570217 
	C64.583969,37.300575 64.322525,37.110947 63.251667,37.329220 
	C56.828323,38.555447 50.404984,39.781670 43.310875,41.121979 
	C42.889679,42.056679 42.468483,42.991383 41.986633,43.990074 
	C41.986633,43.990074 41.919510,44.047249 41.345154,43.967270 
	C40.925549,44.295452 40.505943,44.623638 40.014050,45.007271 
M83.682198,80.046143 
	C83.977623,79.717560 84.291756,79.401680 84.537865,79.039581 
	C84.560982,79.005562 84.155396,78.680161 83.948860,78.490059 
	C83.587585,78.957695 83.226318,79.425339 82.621788,80.084694 
	C82.788513,80.107079 82.955238,80.129471 83.682198,80.046143 
M79.269745,83.995407 
	C78.648010,84.768272 78.026268,85.541145 77.404526,86.314011 
	C77.743179,86.553513 78.081833,86.793022 78.420486,87.032524 
	C79.006111,86.113556 79.591728,85.194595 80.696953,84.177628 
	C80.891617,83.891220 81.086288,83.604805 81.280960,83.318405 
	C80.811195,83.493340 80.341431,83.668266 79.269745,83.995407 
M49.979252,119.301788 
	C49.436981,119.146179 48.894711,118.990570 48.352436,118.834969 
	C48.838932,119.297554 49.325424,119.760147 49.961876,120.839729 
	C50.795506,121.369003 51.629135,121.898277 52.462765,122.427551 
	C52.679276,121.976021 52.895790,121.524483 53.112301,121.072952 
	C52.135361,120.658798 51.158421,120.244652 49.979252,119.301788 
M17.070070,62.132942 
	C19.196648,62.430275 21.323223,62.727608 23.449800,63.024937 
	C21.297789,60.295013 18.626274,60.572357 15.314342,62.238262 
	C15.244744,62.941658 15.175147,63.645050 15.105551,64.348442 
	C15.330854,64.382950 15.556157,64.417450 15.781461,64.451950 
	C15.956586,63.712593 16.131710,62.973232 17.070070,62.132942 
M51.003265,112.765991 
	C51.334549,114.173531 51.665836,115.581062 52.071167,117.580048 
	C53.063271,118.053123 54.055374,118.526199 55.521088,118.999107 
	C55.521088,118.999107 55.994694,118.998657 56.460182,119.533699 
	C57.973152,119.355904 59.486126,119.178101 61.483109,118.797935 
	C61.915340,118.500381 62.347572,118.202820 63.462887,118.077385 
	C64.010902,119.460594 64.558914,120.843803 65.278671,122.660515 
	C66.855110,121.328751 68.427048,120.000786 70.006393,118.666565 
	C68.799812,117.270477 67.878853,116.204880 66.356529,114.443466 
	C68.826897,114.443466 70.186684,114.443466 71.507309,114.443466 
	C72.344910,112.142982 73.132599,109.979584 73.923004,107.808716 
	C70.968842,109.000252 68.490547,109.999855 65.078751,110.999802 
	C60.394657,110.998138 55.710560,110.996475 50.516964,111.016968 
	C50.247307,111.175652 49.977650,111.334335 49.707989,111.493027 
	C50.140553,111.670837 50.573116,111.848648 51.003265,112.765991 
M335.032898,73.921379 
	C335.022614,74.416634 334.913239,74.934418 335.019836,75.403091 
	C335.402161,77.084686 335.857544,78.749680 336.285309,80.420937 
	C337.483826,80.078987 339.447632,80.040184 339.727264,79.334244 
	C340.381592,77.682465 340.587006,75.650009 340.288879,73.887627 
	C340.047729,72.462189 338.806305,71.205956 337.533234,69.081406 
	C336.391602,71.002197 335.763885,72.058281 335.032898,73.921379 
M30.157421,94.195061 
	C31.438971,93.129356 32.911751,92.215378 33.925720,90.937370 
	C34.477074,90.242432 34.248711,88.928886 34.372032,87.894356 
	C33.180359,87.842323 31.783726,87.376213 30.847250,87.839745 
	C29.586428,88.463821 28.484505,89.669876 27.662403,90.865456 
	C25.907598,93.417465 27.562185,93.844742 30.157421,94.195061 
M410.471344,78.846725 
	C410.079895,77.679245 409.688446,76.511765 408.875092,74.085976 
	C407.543823,76.195976 405.867279,77.961540 406.194672,78.493317 
	C407.416321,80.477562 409.295105,82.057228 410.927338,83.788689 
	C411.270660,83.525810 411.613983,83.262924 411.957306,83.000038 
	C411.569611,81.833954 411.181885,80.667862 410.471344,78.846725 
M172.998138,81.440063 
	C172.998138,84.414299 172.998138,87.388535 172.998138,90.362762 
	C173.228302,90.355721 173.458466,90.348686 173.688629,90.341644 
	C173.688629,80.784416 173.688629,71.227188 173.688629,61.669964 
	C173.458466,61.669399 173.228287,61.668831 172.998123,61.668262 
	C172.998123,67.931358 172.998123,74.194450 172.998138,81.440063 
M170.001556,76.497330 
	C170.001556,71.571091 170.001556,66.644852 170.001556,61.718616 
	C169.776474,61.728806 169.551376,61.738995 169.326294,61.749184 
	C169.326294,71.268417 169.326294,80.787651 169.326294,90.306892 
	C169.551376,90.307526 169.776474,90.308159 170.001556,90.308792 
	C170.001556,86.036026 170.001556,81.763260 170.001556,76.497330 
M88.677429,34.637802 
	C87.991547,33.839542 87.305672,33.041286 86.619789,32.243027 
	C84.889847,33.908680 83.159904,35.574337 81.429970,37.239990 
	C81.952629,37.895718 82.475288,38.551449 82.997940,39.207180 
	C84.900528,37.907902 86.803108,36.608624 88.677429,34.637802 
M100.220184,62.281551 
	C100.319359,62.152618 100.457779,62.036457 100.505234,61.890690 
	C100.542984,61.774723 100.506088,61.525024 100.440353,61.500443 
	C96.439247,60.004108 94.227196,60.890770 93.568047,63.785851 
	C95.420921,63.314560 97.490280,62.788212 100.220184,62.281551 
M56.067905,22.411953 
	C56.368916,24.848423 54.817467,27.923124 58.541855,30.559593 
	C57.643459,26.785471 57.055729,24.316422 56.067905,22.411953 
M54.473572,33.948452 
	C56.986164,33.948452 59.498756,33.948452 62.011353,33.948452 
	C61.999664,33.594223 61.987980,33.239994 61.976295,32.885765 
	C59.303391,33.073090 56.630482,33.260414 54.473572,33.948452 
M88.830246,69.175140 
	C88.612526,68.627975 88.394814,68.080818 88.177094,67.533653 
	C87.792763,68.122665 87.408432,68.711670 87.024109,69.300682 
	C87.536293,69.453079 88.048477,69.605484 88.830246,69.175140 
M123.092354,85.118065 
	C123.288025,84.302635 123.483704,83.487213 123.679375,82.671783 
	C123.285408,82.621887 122.891449,82.571983 122.497482,82.522079 
	C122.497482,83.418396 122.497482,84.314713 123.092354,85.118065 
M116.543350,87.284302 
	C116.283134,87.011147 116.025307,86.735435 115.749336,86.479256 
	C115.742241,86.472664 115.536285,86.680305 115.423073,86.788033 
	C115.683640,87.061295 115.944214,87.334557 116.543350,87.284302 
M42.630920,90.681389 
	C42.940052,90.447052 43.249184,90.212715 43.558315,89.978386 
	C43.361248,89.771309 43.164181,89.564232 42.967113,89.357155 
	C42.729462,89.664169 42.491814,89.971191 42.630920,90.681389 
M28.803293,35.415333 
	C28.797541,35.790054 28.791790,36.164780 28.786039,36.539501 
	C28.941425,36.539425 29.231459,36.550861 29.232592,36.537601 
	C29.264385,36.165722 29.266966,35.791344 28.803293,35.415333 
M120.767845,62.968975 
	C121.187424,62.844376 121.607002,62.719780 122.026581,62.595181 
	C121.936241,62.368908 121.845901,62.142639 121.755562,61.916367 
	C121.258324,62.238163 120.761078,62.559959 120.767845,62.968975 
M30.175642,56.570831 
	C30.176670,56.190224 30.183743,55.809219 30.158653,55.430340 
	C30.157545,55.413601 29.862881,55.416302 29.704958,55.409950 
	C29.702818,55.792534 29.700676,56.175117 30.175642,56.570831 
M87.812073,61.428078 
	C87.807541,61.797913 87.803009,62.167747 87.798477,62.537579 
	C87.951889,62.539379 88.238632,62.551670 88.239433,62.541462 
	C88.268394,62.173405 88.270691,61.803257 87.812073,61.428078 
M82.043823,89.497437 
	C82.201454,89.760727 82.359093,90.024010 82.516724,90.287292 
	C82.663147,90.015320 82.984581,89.674110 82.911369,89.489037 
	C82.821388,89.261612 82.401962,89.164505 82.043823,89.497437 
M101.421410,64.576447 
	C101.054283,64.597328 100.687149,64.618210 100.320023,64.639099 
	C100.397186,64.902534 100.474358,65.165962 100.551529,65.429398 
	C100.804825,65.291367 101.058113,65.153343 101.421410,64.576447 
M66.075508,34.845795 
	C66.512756,34.744709 66.950012,34.643623 67.387260,34.542542 
	C67.291725,34.413204 67.179840,34.163895 67.103340,34.174320 
	C66.661316,34.234531 66.227654,34.356064 66.075508,34.845795 
M88.977242,94.369308 
	C89.138840,94.101196 89.300438,93.833076 89.462036,93.564957 
	C89.182175,93.465988 88.902313,93.367020 88.622444,93.268059 
	C88.580971,93.668213 88.539497,94.068359 88.977242,94.369308 
M386.259125,78.814819 
	C386.375061,78.972527 386.490997,79.130226 386.606964,79.287918 
	C386.583160,79.069153 386.559357,78.850388 386.259125,78.814819 
M389.524200,82.657547 
	C389.472565,82.853188 389.420929,83.048828 389.369293,83.244476 
	C389.495117,83.118797 389.620972,82.993118 389.524200,82.657547 
M48.790432,34.185246 
	C48.792408,34.393848 48.783871,34.604012 48.814137,34.808422 
	C48.816883,34.826950 49.185410,34.823887 49.187927,34.804871 
	C49.215027,34.600300 49.202694,34.390499 48.790432,34.185246 
M29.804811,72.222122 
	C29.714050,71.989067 29.623291,71.756004 29.532530,71.522949 
	C29.420887,71.602287 29.204651,71.702637 29.215641,71.757339 
	C29.264189,71.999016 29.378126,72.227562 29.804811,72.222122 
M40.780022,38.803318 
	C40.964405,38.661751 41.148788,38.520187 41.333176,38.378624 
	C41.075474,38.411972 40.817776,38.445324 40.780022,38.803318 
M71.478149,94.633476 
	C71.478149,94.633476 71.586075,94.436935 71.586075,94.436935 
	C71.586075,94.436935 71.366859,94.468178 71.478149,94.633476 
M62.628128,122.520836 
	C62.628128,122.520836 62.436462,122.414726 62.436462,122.414726 
	C62.436462,122.414726 62.466156,122.628136 62.628128,122.520836 
M389.483917,68.582603 
	C389.483917,68.582603 389.423370,68.478371 389.483917,68.582603 
M60.425041,27.485289 
	C60.425041,27.485289 60.515903,27.435646 60.425041,27.485289 
M31.353888,33.478733 
	C31.353888,33.478733 31.559624,33.590160 31.559624,33.590160 
	C31.559624,33.590160 31.525469,33.359638 31.353888,33.478733 
M69.479065,35.625683 
	C69.479065,35.625683 69.578941,35.450199 69.578941,35.450199 
	C69.578941,35.450199 69.379089,35.475525 69.479065,35.625683 
M71.585220,36.517208 
	C71.585220,36.517208 71.476517,36.581455 71.585220,36.517208 
M73.621048,37.521191 
	C73.621048,37.521191 73.450638,37.423111 73.450638,37.423111 
	C73.450638,37.423111 73.474411,37.618217 73.621048,37.521191 
M75.340530,38.480553 
	C75.340530,38.480553 75.565987,38.600136 75.565987,38.600136 
	C75.565987,38.600136 75.526245,38.347229 75.340530,38.480553 
M30.613054,52.522495 
	C30.613054,52.522495 30.478184,52.609772 30.613054,52.522495 
M391.519501,67.404579 
	C391.519501,67.404579 391.593597,67.524864 391.519501,67.404579 
M85.647598,87.523026 
	C85.647598,87.523026 85.429405,87.407318 85.429405,87.407318 
	C85.429405,87.407318 85.467255,87.647751 85.647598,87.523026 
M399.400360,69.481964 
	C399.400360,69.481964 399.523651,69.405624 399.400360,69.481964 
M387.415131,70.483536 
	C387.415131,70.483536 387.522797,70.420090 387.415131,70.483536 
M400.517212,71.409035 
	C400.517212,71.409035 400.585876,71.523041 400.517212,71.409035 
M86.353065,73.473625 
	C86.353065,73.473625 86.561134,73.586205 86.561134,73.586205 
	C86.561134,73.586205 86.526100,73.350235 86.353065,73.473625 
z"/>
<path fill="#000000" opacity="1.000000" stroke="none" 
	d="
M81.995941,74.014938 
	C78.420921,78.093651 74.763931,82.104759 71.314339,86.286934 
	C70.069618,87.795998 68.513168,89.705284 68.490814,91.449768 
	C68.401215,98.441429 63.941029,98.186813 58.995731,98.106163 
	C56.820721,98.070694 53.194592,96.272278 52.636528,101.446228 
	C51.509995,101.886383 50.755268,101.820152 50.000546,101.753914 
	C49.698536,100.433350 49.396523,99.112793 49.331604,97.203552 
	C49.052265,94.701988 48.535839,92.789116 48.019409,90.876236 
	C46.909119,89.012650 45.798828,87.149063 44.266235,84.860672 
	C43.520149,84.303680 43.196373,84.171509 42.872593,84.039337 
	C42.872593,84.039337 42.436527,84.016182 42.106491,83.791733 
	C41.576218,83.297546 41.317162,83.108353 40.999279,82.999695 
	C40.830723,82.999763 40.662170,82.999825 40.202271,82.645844 
	C37.940971,79.171074 35.971027,76.050339 34.001080,72.929604 
	C33.998428,71.553047 33.995773,70.176491 33.876877,68.130478 
	C33.508610,66.959518 33.256592,66.458031 33.004578,65.956535 
	C33.003227,64.272575 33.001873,62.588619 33.239815,60.302952 
	C33.648643,59.142754 33.818180,58.584267 33.987717,58.025784 
	C33.989712,57.597912 33.991707,57.170044 34.033794,56.159206 
	C34.104221,55.402626 34.134560,55.229008 34.164902,55.055386 
	C34.787716,53.660564 35.410534,52.265747 36.374825,50.469654 
	C37.128822,49.665356 37.541351,49.262329 37.953873,48.859303 
	C37.974075,48.479218 37.994274,48.099133 38.348274,47.362457 
	C39.102219,46.358467 39.522358,45.711067 39.942497,45.063663 
	C39.942497,45.063663 40.014050,45.007271 40.337234,45.024281 
	C41.080112,44.709942 41.499809,44.378593 41.919510,44.047249 
	C41.919510,44.047249 41.986633,43.990074 42.310135,43.844158 
	C43.082973,42.801460 43.532307,41.904678 43.981640,41.007896 
	C50.404984,39.781670 56.828323,38.555447 63.635925,37.392418 
	C64.354248,37.637371 64.688309,37.819122 65.022377,38.000874 
	C65.022377,38.000874 65.489197,37.998299 65.759949,38.290184 
	C66.687523,38.721378 67.344337,38.860691 68.001160,39.000000 
	C68.001160,39.000000 68.493835,38.997963 68.764420,39.295860 
	C69.359428,40.063660 69.683846,40.533566 70.008270,41.003471 
	C70.412773,41.012810 70.817284,41.022152 71.570633,41.307941 
	C72.365234,41.722755 72.810982,41.861115 73.256737,41.999474 
	C73.256737,41.999474 73.619736,41.998192 73.855873,42.333729 
	C77.377037,48.159767 80.662064,53.650269 83.947090,59.140766 
	C83.970306,62.136623 83.993523,65.132477 83.767990,68.652069 
	C83.354477,69.487694 83.189728,69.799591 83.024979,70.111481 
	C83.017029,70.492424 83.009079,70.873367 82.733002,71.724564 
	C82.308563,72.801521 82.152252,73.408234 81.995941,74.014938 
M59.016273,70.497475 
	C60.936523,65.311790 62.963974,60.161114 64.679115,54.908459 
	C64.991264,53.952511 64.027458,52.579926 63.652672,51.399673 
	C62.439125,51.902340 60.651455,52.073475 60.130291,52.975967 
	C59.008778,54.918095 58.583817,57.253128 57.792858,59.397511 
	C56.368633,63.258778 54.651531,67.033257 53.554340,70.982239 
	C53.176743,72.341293 54.283958,74.112892 54.712875,75.696030 
	C55.851311,74.650864 57.027950,73.642868 58.104092,72.537079 
	C58.413025,72.219635 58.431698,71.619705 59.016273,70.497475 
M49.814270,58.944904 
	C49.090664,58.404243 47.813515,57.312969 47.723949,57.403004 
	C45.099308,60.041607 41.546036,62.459782 40.507057,65.677200 
	C39.983536,67.298378 43.878258,70.589958 46.145756,72.734276 
	C46.920807,73.467232 48.826073,73.005051 50.214954,73.088928 
	C49.771767,71.850174 49.505173,70.504639 48.838005,69.401321 
	C48.103733,68.187042 47.001167,67.195465 46.370682,66.466957 
	C47.727596,63.886734 48.837963,61.775337 49.814270,58.944904 
M68.252670,57.841251 
	C69.175522,60.344280 70.098381,62.847309 71.220100,65.889709 
	C70.645653,66.561722 69.207848,67.658157 68.651901,69.095650 
	C68.267937,70.088448 69.102814,71.552635 69.393013,72.806168 
	C71.399300,71.555656 73.708237,70.600388 75.311623,68.956825 
	C76.494247,67.744560 77.782661,64.639633 77.253166,64.092873 
	C74.744278,61.502201 71.627182,59.500538 68.252670,57.841251 
z"/>
<path fill="#000000" opacity="1.000000" stroke="none" 
	d="
M51.997124,116.988602 
	C51.665836,115.581062 51.334549,114.173531 51.011375,112.138184 
	C51.021812,111.338524 51.024139,111.166664 51.026466,110.994804 
	C55.710560,110.996475 60.394657,110.998138 65.539703,111.361664 
	C64.927040,113.784103 63.853420,115.844681 62.779808,117.905266 
	C62.347572,118.202820 61.915340,118.500381 60.824219,118.894974 
	C58.775120,118.994225 57.384907,118.996437 55.994694,118.998657 
	C55.994694,118.998657 55.521088,118.999107 55.109467,118.744186 
	C53.797604,117.989044 52.897362,117.488823 51.997124,116.988602 
z"/>
<path fill="#0F0F0F" opacity="1.000000" stroke="none" 
	d="
M84.000000,58.841949 
	C80.662064,53.650269 77.377037,48.159767 74.037369,42.332783 
	C75.126244,41.443775 76.269760,40.891251 77.585381,40.255566 
	C82.029205,44.392509 86.728401,48.348785 87.005058,55.584694 
	C86.997375,56.004192 86.951424,56.046307 86.951424,56.046310 
	C85.985252,56.878586 85.019081,57.710861 84.000000,58.841949 
z"/>
<path fill="#0F0F0F" opacity="1.000000" stroke="none" 
	d="
M33.778442,73.206535 
	C35.971027,76.050339 37.940971,79.171074 39.949440,82.645950 
	C39.713474,83.730774 39.438988,84.461449 39.071209,85.593735 
	C38.977921,85.995354 38.743465,86.183609 38.743465,86.183609 
	C35.601101,82.782471 32.458736,79.381332 28.675905,75.286987 
	C31.269985,74.328262 32.412895,73.905869 33.778442,73.206535 
z"/>
<path fill="#0F0F0F" opacity="1.000000" stroke="none" 
	d="
M63.121346,117.991325 
	C63.853420,115.844681 64.927040,113.784103 66.006454,111.361496 
	C68.490547,109.999855 70.968842,109.000252 73.923004,107.808716 
	C73.132599,109.979584 72.344910,112.142982 71.507309,114.443466 
	C70.186684,114.443466 68.826897,114.443466 66.356529,114.443466 
	C67.878853,116.204880 68.799812,117.270477 70.006393,118.666565 
	C68.427048,120.000786 66.855110,121.328751 65.278671,122.660515 
	C64.558914,120.843803 64.010902,119.460594 63.121346,117.991325 
z"/>
<path fill="#000000" opacity="1.000000" stroke="none" 
	d="
M67.091682,105.966354 
	C61.037685,106.310814 54.983692,106.655266 48.463268,106.612686 
	C48.001026,105.193970 48.005211,104.162285 48.435181,103.064484 
	C53.741261,103.340073 58.633759,103.569901 63.493454,104.100296 
	C64.745842,104.236984 65.895065,105.318741 67.091682,105.966354 
z"/>
<path fill="#000000" opacity="1.000000" stroke="none" 
	d="
M335.084534,73.517868 
	C335.763885,72.058281 336.391602,71.002197 337.533234,69.081406 
	C338.806305,71.205956 340.047729,72.462189 340.288879,73.887627 
	C340.587006,75.650009 340.381592,77.682465 339.727264,79.334244 
	C339.447632,80.040184 337.483826,80.078987 336.285309,80.420944 
	C335.857544,78.749680 335.402161,77.084686 335.019836,75.403091 
	C334.913239,74.934418 335.022614,74.416634 335.084534,73.517868 
z"/>
<path fill="#F3F3F3" opacity="1.000000" stroke="none" 
	d="
M67.480225,105.976212 
	C65.895065,105.318741 64.745842,104.236984 63.493454,104.100296 
	C58.633759,103.569901 53.741261,103.340073 48.231152,102.979774 
	C47.601330,102.961197 47.159794,102.944954 47.159798,102.944962 
	C47.882881,102.610107 48.605968,102.275253 49.664803,101.847160 
	C50.755268,101.820152 51.509995,101.886383 52.632149,101.851059 
	C57.023418,101.814774 61.047253,101.880058 65.862801,101.959915 
	C67.108185,101.909760 67.561852,101.845024 68.015526,101.780289 
	C67.966606,103.182220 67.917686,104.584152 67.480225,105.976212 
z"/>
<path fill="#1B1B1B" opacity="1.000000" stroke="none" 
	d="
M29.941730,93.987030 
	C27.562185,93.844742 25.907598,93.417465 27.662403,90.865456 
	C28.484505,89.669876 29.586428,88.463821 30.847250,87.839745 
	C31.783726,87.376213 33.180359,87.842323 34.372032,87.894356 
	C34.248711,88.928886 34.477074,90.242432 33.925720,90.937370 
	C32.911751,92.215378 31.438971,93.129356 29.941730,93.987030 
z"/>
<path fill="#030303" opacity="1.000000" stroke="none" 
	d="
M410.632751,79.174255 
	C411.181885,80.667862 411.569611,81.833954 411.957306,83.000038 
	C411.613983,83.262924 411.270660,83.525810 410.927338,83.788689 
	C409.295105,82.057228 407.416321,80.477562 406.194672,78.493317 
	C405.867279,77.961540 407.543823,76.195976 408.875092,74.085976 
	C409.688446,76.511765 410.079895,77.679245 410.632751,79.174255 
z"/>
<path fill="#E9E9E9" opacity="1.000000" stroke="none" 
	d="
M172.998138,80.948807 
	C172.998123,74.194450 172.998123,67.931358 172.998123,61.668262 
	C173.228287,61.668831 173.458466,61.669399 173.688629,61.669964 
	C173.688629,71.227188 173.688629,80.784416 173.688629,90.341644 
	C173.458466,90.348686 173.228302,90.355721 172.998138,90.362762 
	C172.998138,87.388535 172.998138,84.414299 172.998138,80.948807 
z"/>
<path fill="#D1D1D1" opacity="1.000000" stroke="none" 
	d="
M170.001556,76.993912 
	C170.001556,81.763260 170.001556,86.036026 170.001556,90.308792 
	C169.776474,90.308159 169.551376,90.307526 169.326294,90.306892 
	C169.326294,80.787651 169.326294,71.268417 169.326294,61.749184 
	C169.551376,61.738995 169.776474,61.728806 170.001556,61.718616 
	C170.001556,66.644852 170.001556,71.571091 170.001556,76.993912 
z"/>
<path fill="#131313" opacity="1.000000" stroke="none" 
	d="
M88.691559,34.973572 
	C86.803108,36.608624 84.900528,37.907902 82.997940,39.207180 
	C82.475288,38.551449 81.952629,37.895718 81.429970,37.239990 
	C83.159904,35.574337 84.889847,33.908680 86.619789,32.243027 
	C87.305672,33.041286 87.991547,33.839542 88.691559,34.973572 
z"/>
<path fill="#0F0F0F" opacity="1.000000" stroke="none" 
	d="
M47.857502,91.135735 
	C48.535839,92.789116 49.052265,94.701988 49.295429,96.863876 
	C47.550243,95.815521 46.078320,94.518166 44.459713,93.091522 
	C45.424980,92.585518 46.560287,91.990372 47.857502,91.135735 
z"/>
<path fill="#0F0F0F" opacity="1.000000" stroke="none" 
	d="
M46.784458,102.971252 
	C47.159794,102.944954 47.601330,102.961197 47.805359,103.045898 
	C48.005211,104.162285 48.001026,105.193970 47.997650,106.612518 
	C46.742344,106.290199 45.486221,105.581009 44.230103,104.871819 
	C44.956444,104.247070 45.682781,103.622314 46.784458,102.971252 
z"/>
<path fill="#121212" opacity="1.000000" stroke="none" 
	d="
M99.889908,62.271706 
	C97.490280,62.788212 95.420921,63.314560 93.568047,63.785851 
	C94.227196,60.890770 96.439247,60.004108 100.440353,61.500443 
	C100.506088,61.525024 100.542984,61.774723 100.505234,61.890690 
	C100.457779,62.036457 100.319359,62.152618 99.889908,62.271706 
z"/>
<path fill="#171717" opacity="1.000000" stroke="none" 
	d="
M56.267952,22.129662 
	C57.055729,24.316422 57.643459,26.785471 58.541855,30.559593 
	C54.817467,27.923124 56.368916,24.848423 56.267952,22.129662 
z"/>
<path fill="#171717" opacity="1.000000" stroke="none" 
	d="
M15.789207,61.826859 
	C18.626274,60.572357 21.297789,60.295013 23.449800,63.024937 
	C21.323223,62.727608 19.196648,62.430275 16.557190,62.084015 
	C16.044308,62.035084 15.789207,61.826859 15.789207,61.826859 
z"/>
<path fill="#0F0F0F" opacity="1.000000" stroke="none" 
	d="
M54.215576,33.698097 
	C56.630482,33.260414 59.303391,33.073090 61.976295,32.885765 
	C61.987980,33.239994 61.999664,33.594223 62.011353,33.948452 
	C59.498756,33.948452 56.986164,33.948452 54.215576,33.698097 
z"/>
<path fill="#0F0F0F" opacity="1.000000" stroke="none" 
	d="
M88.695450,69.466507 
	C88.048477,69.605484 87.536293,69.453079 87.024109,69.300682 
	C87.408432,68.711670 87.792763,68.122665 88.177094,67.533653 
	C88.394814,68.080818 88.612526,68.627975 88.695450,69.466507 
z"/>
<path fill="#030303" opacity="1.000000" stroke="none" 
	d="
M122.794922,85.164551 
	C122.497482,84.314713 122.497482,83.418396 122.497482,82.522079 
	C122.891449,82.571983 123.285408,82.621887 123.679375,82.671783 
	C123.483704,83.487213 123.288025,84.302635 122.794922,85.164551 
z"/>
<path fill="#0F0F0F" opacity="1.000000" stroke="none" 
	d="
M50.181480,119.830498 
	C51.158421,120.244652 52.135361,120.658798 53.112301,121.072952 
	C52.895790,121.524483 52.679276,121.976021 52.462765,122.427551 
	C51.629135,121.898277 50.795506,121.369003 49.976242,120.430313 
	C49.990612,120.020889 50.181480,119.830498 50.181480,119.830498 
z"/>
<path fill="#0F0F0F" opacity="1.000000" stroke="none" 
	d="
M80.177353,84.275627 
	C79.591728,85.194595 79.006111,86.113556 78.420486,87.032524 
	C78.081833,86.793022 77.743179,86.553513 77.404526,86.314011 
	C78.026268,85.541145 78.648010,84.768272 79.651382,84.024399 
	C80.033028,84.053383 80.177353,84.275627 80.177353,84.275627 
z"/>
<path fill="#0F0F0F" opacity="1.000000" stroke="none" 
	d="
M87.021500,55.984455 
	C87.569199,56.650505 88.097824,57.332813 88.587639,58.041924 
	C88.600029,58.059860 88.185219,58.372879 87.969635,58.548271 
	C87.632935,57.928909 87.296234,57.309547 86.955482,56.368248 
	C86.951424,56.046307 86.997375,56.004192 87.021500,55.984455 
z"/>
<path fill="#0F0F0F" opacity="1.000000" stroke="none" 
	d="
M43.646255,41.064938 
	C43.532307,41.904678 43.082973,42.801460 42.340462,43.812164 
	C42.468483,42.991383 42.889679,42.056679 43.646255,41.064938 
z"/>
<path fill="#0F0F0F" opacity="1.000000" stroke="none" 
	d="
M52.034145,117.284325 
	C52.897362,117.488823 53.797604,117.989044 54.872662,118.744263 
	C54.055374,118.526199 53.063271,118.053123 52.034145,117.284325 
z"/>
<path fill="#0F0F0F" opacity="1.000000" stroke="none" 
	d="
M56.227440,119.266174 
	C57.384907,118.996437 58.775120,118.994225 60.582214,118.996155 
	C59.486126,119.178101 57.973152,119.355904 56.227440,119.266174 
z"/>
<path fill="#0F0F0F" opacity="1.000000" stroke="none" 
	d="
M32.697388,66.011307 
	C33.256592,66.458031 33.508610,66.959518 33.872093,67.717476 
	C33.209141,67.811493 32.434727,67.649055 31.660315,67.486610 
	C31.903610,67.013100 32.146908,66.539581 32.697388,66.011307 
z"/>
<path fill="#0F0F0F" opacity="1.000000" stroke="none" 
	d="
M39.083515,85.888336 
	C39.571632,86.319794 39.954155,86.858269 40.336678,87.396759 
	C39.859077,87.176140 39.381477,86.955521 38.823669,86.459259 
	C38.743465,86.183609 38.977921,85.995354 39.083515,85.888336 
z"/>
<path fill="#030303" opacity="1.000000" stroke="none" 
	d="
M116.374069,87.446060 
	C115.944214,87.334557 115.683640,87.061295 115.423073,86.788033 
	C115.536285,86.680305 115.742241,86.472664 115.749336,86.479256 
	C116.025307,86.735435 116.283134,87.011147 116.374069,87.446060 
z"/>
<path fill="#0F0F0F" opacity="1.000000" stroke="none" 
	d="
M67.968765,101.509109 
	C67.561852,101.845024 67.108185,101.909760 66.320000,101.885864 
	C66.630989,101.610802 67.276497,101.424370 67.968765,101.509109 
z"/>
<path fill="#0F0F0F" opacity="1.000000" stroke="none" 
	d="
M82.865051,79.892975 
	C83.226318,79.425339 83.587585,78.957695 83.948853,78.490051 
	C84.155396,78.680161 84.560982,79.005562 84.537865,79.039581 
	C84.291756,79.401680 83.977623,79.717560 83.340973,80.031181 
	C82.999741,80.016220 82.865044,79.892975 82.865051,79.892975 
z"/>
<path fill="#0F0F0F" opacity="1.000000" stroke="none" 
	d="
M42.442543,90.479797 
	C42.491814,89.971191 42.729462,89.664169 42.967113,89.357155 
	C43.164181,89.564232 43.361248,89.771309 43.558315,89.978386 
	C43.249184,90.212715 42.940052,90.447052 42.442543,90.479797 
z"/>
<path fill="#0F0F0F" opacity="1.000000" stroke="none" 
	d="
M82.290253,73.977264 
	C82.152252,73.408234 82.308563,72.801521 82.729996,72.010323 
	C82.858261,72.530418 82.721413,73.235001 82.290253,73.977264 
z"/>
<path fill="#121212" opacity="1.000000" stroke="none" 
	d="
M29.038822,35.416355 
	C29.266966,35.791344 29.264385,36.165722 29.232592,36.537601 
	C29.231459,36.550861 28.941425,36.539425 28.786039,36.539501 
	C28.791790,36.164780 28.797541,35.790054 29.038822,35.416355 
z"/>
<path fill="#0F0F0F" opacity="1.000000" stroke="none" 
	d="
M39.615772,45.085518 
	C39.522358,45.711067 39.102219,46.358467 38.364182,47.077431 
	C38.460537,46.468456 38.874790,45.787914 39.615772,45.085518 
z"/>
<path fill="#0F0F0F" opacity="1.000000" stroke="none" 
	d="
M49.901264,120.121811 
	C49.325424,119.760147 48.838932,119.297554 48.352436,118.834961 
	C48.894711,118.990570 49.436981,119.146179 50.080368,119.566147 
	C50.181480,119.830498 49.990612,120.020889 49.901264,120.121811 
z"/>
<path fill="#030303" opacity="1.000000" stroke="none" 
	d="
M120.515839,62.925365 
	C120.761078,62.559959 121.258324,62.238163 121.755562,61.916367 
	C121.845901,62.142639 121.936241,62.368908 122.026581,62.595181 
	C121.607002,62.719780 121.187424,62.844376 120.515839,62.925365 
z"/>
<path fill="#0F0F0F" opacity="1.000000" stroke="none" 
	d="
M29.937088,56.564266 
	C29.700676,56.175117 29.702818,55.792534 29.704958,55.409950 
	C29.862881,55.416302 30.157545,55.413601 30.158653,55.430340 
	C30.183743,55.809219 30.176670,56.190224 29.937088,56.564266 
z"/>
<path fill="#0F0F0F" opacity="1.000000" stroke="none" 
	d="
M67.823586,38.757011 
	C67.344337,38.860691 66.687523,38.721378 65.993355,38.288513 
	C66.519341,38.167976 67.082680,38.341000 67.823586,38.757011 
z"/>
<path fill="#0F0F0F" opacity="1.000000" stroke="none" 
	d="
M88.044373,61.430737 
	C88.270691,61.803257 88.268394,62.173405 88.239433,62.541462 
	C88.238632,62.551670 87.951889,62.539379 87.798477,62.537582 
	C87.803009,62.167747 87.807541,61.797913 88.044373,61.430737 
z"/>
<path fill="#0F0F0F" opacity="1.000000" stroke="none" 
	d="
M33.698494,58.056068 
	C33.818180,58.584267 33.648643,59.142754 33.240189,59.882149 
	C33.137272,59.404160 33.273270,58.745255 33.698494,58.056068 
z"/>
<path fill="#171717" opacity="1.000000" stroke="none" 
	d="
M82.084381,89.254257 
	C82.401962,89.164505 82.821388,89.261612 82.911369,89.489037 
	C82.984581,89.674110 82.663147,90.015320 82.516724,90.287292 
	C82.359093,90.024010 82.201454,89.760727 82.084381,89.254257 
z"/>
<path fill="#121212" opacity="1.000000" stroke="none" 
	d="
M101.366409,64.795883 
	C101.058113,65.153343 100.804825,65.291367 100.551529,65.429398 
	C100.474358,65.165962 100.397186,64.902534 100.320023,64.639099 
	C100.687149,64.618210 101.054283,64.597328 101.366409,64.795883 
z"/>
<path fill="#171717" opacity="1.000000" stroke="none" 
	d="
M16.175571,62.134476 
	C16.131710,62.973232 15.956586,63.712593 15.781461,64.451950 
	C15.556157,64.417450 15.330854,64.382950 15.105551,64.348442 
	C15.175147,63.645050 15.244744,62.941658 15.551774,62.032562 
	C15.789207,61.826859 16.044308,62.035084 16.175571,62.134476 
z"/>
<path fill="#0F0F0F" opacity="1.000000" stroke="none" 
	d="
M65.933334,34.651314 
	C66.227654,34.356064 66.661316,34.234531 67.103340,34.174320 
	C67.179840,34.163895 67.291725,34.413204 67.387260,34.542542 
	C66.950012,34.643623 66.512756,34.744709 65.933334,34.651314 
z"/>
<path fill="#171717" opacity="1.000000" stroke="none" 
	d="
M88.737633,94.418915 
	C88.539497,94.068359 88.580971,93.668213 88.622444,93.268051 
	C88.902313,93.367020 89.182175,93.465988 89.462036,93.564957 
	C89.300438,93.833076 89.138840,94.101196 88.737633,94.418915 
z"/>
<path fill="#060606" opacity="1.000000" stroke="none" 
	d="
M386.397339,78.723221 
	C386.559357,78.850388 386.583160,79.069153 386.606964,79.287918 
	C386.490997,79.130226 386.375061,78.972527 386.397339,78.723221 
z"/>
<path fill="#0F0F0F" opacity="1.000000" stroke="none" 
	d="
M37.638237,48.903168 
	C37.541351,49.262329 37.128822,49.665356 36.411789,50.133480 
	C36.512390,49.781399 36.917496,49.364220 37.638237,48.903168 
z"/>
<path fill="#0F0F0F" opacity="1.000000" stroke="none" 
	d="
M41.632332,44.007259 
	C41.499809,44.378593 41.080112,44.709942 40.373375,44.996559 
	C40.505943,44.623638 40.925549,44.295452 41.632332,44.007259 
z"/>
<path fill="#0F0F0F" opacity="1.000000" stroke="none" 
	d="
M33.901535,55.027405 
	C34.134560,55.229008 34.104221,55.402626 34.031609,55.838306 
	C33.620636,55.947315 33.251949,55.794262 32.883263,55.641205 
	C33.134899,55.427277 33.386532,55.213352 33.901535,55.027405 
z"/>
<path fill="#0F0F0F" opacity="1.000000" stroke="none" 
	d="
M79.952347,83.948288 
	C80.341431,83.668266 80.811195,83.493340 81.280960,83.318405 
	C81.086288,83.604805 80.891617,83.891220 80.437149,84.226624 
	C80.177353,84.275627 80.033028,84.053383 79.952347,83.948288 
z"/>
<path fill="#060606" opacity="1.000000" stroke="none" 
	d="
M389.635498,82.762497 
	C389.620972,82.993118 389.495117,83.118797 389.369293,83.244476 
	C389.420929,83.048828 389.472565,82.853188 389.635498,82.762497 
z"/>
<path fill="#0F0F0F" opacity="1.000000" stroke="none" 
	d="
M73.079193,41.759739 
	C72.810982,41.861115 72.365234,41.722755 71.873413,41.328514 
	C72.185448,41.221760 72.543541,41.370880 73.079193,41.759739 
z"/>
<path fill="#0F0F0F" opacity="1.000000" stroke="none" 
	d="
M46.993057,116.008904 
	C46.750446,115.665871 46.505821,115.324112 46.280788,114.969910 
	C46.276615,114.963341 46.505314,114.808830 46.625362,114.723351 
	C46.744244,114.990097 46.863125,115.256851 46.991028,115.761795 
	C47.000046,116.000000 46.993057,116.008904 46.993057,116.008904 
z"/>
<path fill="#0F0F0F" opacity="1.000000" stroke="none" 
	d="
M69.985954,40.703712 
	C69.683846,40.533566 69.359428,40.063660 69.010757,39.294449 
	C69.312218,39.464752 69.637932,39.934353 69.985954,40.703712 
z"/>
<path fill="#0F0F0F" opacity="1.000000" stroke="none" 
	d="
M48.995796,34.183689 
	C49.202694,34.390499 49.215027,34.600300 49.187927,34.804871 
	C49.185410,34.823887 48.816883,34.826950 48.814137,34.808422 
	C48.783871,34.604012 48.792408,34.393848 48.995796,34.183689 
z"/>
<path fill="#0F0F0F" opacity="1.000000" stroke="none" 
	d="
M29.636600,72.341492 
	C29.378126,72.227562 29.264189,71.999016 29.215641,71.757339 
	C29.204651,71.702637 29.420887,71.602287 29.532532,71.522949 
	C29.623291,71.756004 29.714050,71.989067 29.636600,72.341492 
z"/>
<path fill="#0F0F0F" opacity="1.000000" stroke="none" 
	d="
M64.904877,37.785545 
	C64.688309,37.819122 64.354248,37.637371 64.011612,37.228477 
	C64.322525,37.110947 64.583969,37.300575 64.904877,37.785545 
z"/>
<path fill="#0F0F0F" opacity="1.000000" stroke="none" 
	d="
M50.771713,111.005890 
	C51.024139,111.166664 51.021812,111.338524 51.012581,111.768425 
	C50.573116,111.848648 50.140553,111.670837 49.707993,111.493027 
	C49.977650,111.334335 50.247307,111.175652 50.771713,111.005890 
z"/>
<path fill="#0F0F0F" opacity="1.000000" stroke="none" 
	d="
M40.670048,38.640995 
	C40.817776,38.445324 41.075474,38.411972 41.333176,38.378624 
	C41.148788,38.520187 40.964405,38.661751 40.670048,38.640995 
z"/>
<path fill="#0F0F0F" opacity="1.000000" stroke="none" 
	d="
M71.422501,94.550827 
	C71.366859,94.468178 71.586075,94.436935 71.586075,94.436935 
	C71.586075,94.436935 71.478149,94.633476 71.422501,94.550827 
z"/>
<path fill="#0F0F0F" opacity="1.000000" stroke="none" 
	d="
M47.004547,115.996460 
	C47.125523,116.136581 47.242001,116.280228 47.358475,116.423889 
	C47.273193,116.375946 47.187908,116.328003 47.047840,116.144485 
	C46.993057,116.008904 47.000046,116.000000 47.004547,115.996460 
z"/>
<path fill="#0F0F0F" opacity="1.000000" stroke="none" 
	d="
M62.547142,122.574486 
	C62.466156,122.628136 62.436462,122.414726 62.436462,122.414726 
	C62.436462,122.414726 62.628128,122.520836 62.547142,122.574486 
z"/>
<path fill="#060606" opacity="1.000000" stroke="none" 
	d="
M389.453644,68.530487 
	C389.423370,68.478371 389.483917,68.582603 389.453644,68.530487 
z"/>
<path fill="#171717" opacity="1.000000" stroke="none" 
	d="
M60.470474,27.460468 
	C60.515903,27.435646 60.425041,27.485289 60.470474,27.460468 
z"/>
<path fill="#121212" opacity="1.000000" stroke="none" 
	d="
M31.439678,33.419186 
	C31.525469,33.359638 31.559624,33.590160 31.559624,33.590160 
	C31.559624,33.590160 31.353888,33.478733 31.439678,33.419186 
z"/>
<path fill="#0F0F0F" opacity="1.000000" stroke="none" 
	d="
M69.429077,35.550606 
	C69.379089,35.475525 69.578941,35.450199 69.578941,35.450199 
	C69.578941,35.450199 69.479065,35.625683 69.429077,35.550606 
z"/>
<path fill="#0F0F0F" opacity="1.000000" stroke="none" 
	d="
M71.530869,36.549332 
	C71.476517,36.581455 71.585220,36.517208 71.530869,36.549332 
z"/>
<path fill="#0F0F0F" opacity="1.000000" stroke="none" 
	d="
M73.547729,37.569702 
	C73.474411,37.618217 73.450638,37.423111 73.450638,37.423111 
	C73.450638,37.423111 73.621048,37.521191 73.547729,37.569702 
z"/>
<path fill="#0F0F0F" opacity="1.000000" stroke="none" 
	d="
M75.433388,38.413891 
	C75.526245,38.347229 75.565987,38.600136 75.565987,38.600136 
	C75.565987,38.600136 75.340530,38.480553 75.433388,38.413891 
z"/>
<path fill="#0F0F0F" opacity="1.000000" stroke="none" 
	d="
M30.545620,52.566132 
	C30.478184,52.609772 30.613054,52.522495 30.545620,52.566132 
z"/>
<path fill="#060606" opacity="1.000000" stroke="none" 
	d="
M391.556549,67.464722 
	C391.593597,67.524864 391.519501,67.404579 391.556549,67.464722 
z"/>
<path fill="#171717" opacity="1.000000" stroke="none" 
	d="
M85.557426,87.585388 
	C85.467255,87.647751 85.429405,87.407318 85.429405,87.407318 
	C85.429405,87.407318 85.647598,87.523026 85.557426,87.585388 
z"/>
<path fill="#0F0F0F" opacity="1.000000" stroke="none" 
	d="
M83.257034,69.975655 
	C83.189728,69.799591 83.354477,69.487694 83.755135,69.043243 
	C83.823723,69.220406 83.656410,69.530113 83.257034,69.975655 
z"/>
<path fill="#060606" opacity="1.000000" stroke="none" 
	d="
M399.462006,69.443794 
	C399.523651,69.405624 399.400360,69.481964 399.462006,69.443794 
z"/>
<path fill="#060606" opacity="1.000000" stroke="none" 
	d="
M387.468964,70.451813 
	C387.522797,70.420090 387.415131,70.483536 387.468964,70.451813 
z"/>
<path fill="#060606" opacity="1.000000" stroke="none" 
	d="
M400.551544,71.466034 
	C400.585876,71.523041 400.517212,71.409035 400.551544,71.466034 
z"/>
<path fill="#0F0F0F" opacity="1.000000" stroke="none" 
	d="
M86.439583,73.411926 
	C86.526100,73.350235 86.561134,73.586205 86.561134,73.586205 
	C86.561134,73.586205 86.353065,73.473625 86.439583,73.411926 
z"/>
<path fill="#0F0F0F" opacity="1.000000" stroke="none" 
	d="
M83.060852,80.084045 
	C82.955238,80.129471 82.788513,80.107079 82.743416,79.988831 
	C82.865044,79.892975 82.999741,80.016220 83.060852,80.084045 
z"/>
<path fill="#0F0F0F" opacity="1.000000" stroke="none" 
	d="
M41.111115,83.216080 
	C41.317162,83.108353 41.576218,83.297546 41.888302,83.783638 
	C41.682198,83.891457 41.423130,83.702278 41.111115,83.216080 
z"/>
<path fill="#0F0F0F" opacity="1.000000" stroke="none" 
	d="
M43.015934,84.274078 
	C43.196373,84.171509 43.520149,84.303680 44.002182,84.652657 
	C43.826714,84.749245 43.492992,84.629028 43.015934,84.274078 
z"/>
<path fill="#131313" opacity="1.000000" stroke="none" 
	d="
M58.799862,70.823387 
	C58.431698,71.619705 58.413025,72.219635 58.104092,72.537079 
	C57.027950,73.642868 55.851311,74.650864 54.712875,75.696030 
	C54.283958,74.112892 53.176743,72.341293 53.554340,70.982239 
	C54.651531,67.033257 56.368633,63.258778 57.792858,59.397511 
	C58.583817,57.253128 59.008778,54.918095 60.130291,52.975967 
	C60.651455,52.073475 62.439125,51.902340 63.652672,51.399673 
	C64.027458,52.579926 64.991264,53.952511 64.679115,54.908459 
	C62.963974,60.161114 60.936523,65.311790 58.799862,70.823387 
z"/>
<path fill="#121212" opacity="1.000000" stroke="none" 
	d="
M49.881298,59.304420 
	C48.837963,61.775337 47.727596,63.886734 46.370682,66.466957 
	C47.001167,67.195465 48.103733,68.187042 48.838005,69.401321 
	C49.505173,70.504639 49.771767,71.850174 50.214954,73.088928 
	C48.826073,73.005051 46.920807,73.467232 46.145756,72.734276 
	C43.878258,70.589958 39.983536,67.298378 40.507057,65.677200 
	C41.546036,62.459782 45.099308,60.041607 47.723949,57.403004 
	C47.813515,57.312969 49.090664,58.404243 49.881298,59.304420 
z"/>
<path fill="#101010" opacity="1.000000" stroke="none" 
	d="
M68.489716,57.565140 
	C71.627182,59.500538 74.744278,61.502201 77.253166,64.092873 
	C77.782661,64.639633 76.494247,67.744560 75.311623,68.956825 
	C73.708237,70.600388 71.399300,71.555656 69.393013,72.806168 
	C69.102814,71.552635 68.267937,70.088448 68.651901,69.095650 
	C69.207848,67.658157 70.645653,66.561722 71.220100,65.889709 
	C70.098381,62.847309 69.175522,60.344280 68.489716,57.565140 
z"/>
</svg>